<?xml version="1.0" encoding="iso-8859-1"?>
<!-- Generator: Adobe Illustrator 16.2.1, SVG Export Plug-In . SVG Version: 6.00 Build 0)  -->
<!DOCTYPE svg PUBLIC "-//W3C//DTD SVG 1.1//EN" "http://www.w3.org/Graphics/SVG/1.1/DTD/svg11.dtd">
<svg version="1.1" id="Layer_1" xmlns="http://www.w3.org/2000/svg" xmlns:xlink="http://www.w3.org/1999/xlink" x="0px" y="0px"
	 width="1580px" height="900px" viewBox="0 0 1580 900" style="enable-background:new 0 0 1580 900;" xml:space="preserve">
<line style="fill:none;stroke:#F1F2F2;stroke-width:0.75;stroke-linecap:round;stroke-linejoin:round;" x1="1139.518" y1="395.402" x2="1205.008" y2="343.332"/>
<line style="fill:none;stroke:#F1F2F2;stroke-width:0.75;stroke-linecap:round;stroke-linejoin:round;" x1="604.375" y1="792.547" x2="603.006" y2="757.354"/>
<line style="fill:none;stroke:#F1F2F2;stroke-width:0.75;stroke-linecap:round;stroke-linejoin:round;" x1="884.029" y1="743.237" x2="883.907" y2="760.999"/>
<path style="fill:none;stroke:#F1F2F2;stroke-width:0.75;stroke-linecap:round;stroke-linejoin:round;" d="M668.13,84.076
	c0.81-0.489,1.623-0.966,2.439-1.438c0.826-0.474,1.651-0.938,2.474-1.389c1.747-0.955,3.513-1.865,5.302-2.728
	c3.346-1.618,6.762-3.076,10.252-4.352"/>
<path style="fill:none;stroke:#F1F2F2;stroke-width:0.75;stroke-linecap:round;stroke-linejoin:round;" d="M732.442,69.197
	c14.158,1.916,26.514,6.694,38.815,13.708"/>
<path style="fill:none;stroke:#F1F2F2;stroke-width:0.75;stroke-linecap:round;stroke-linejoin:round;" d="M688.598,74.168
	c14.579-5.314,28.389-7.068,43.844-4.972"/>
<line style="fill:none;stroke:#F1F2F2;stroke-width:0.75;stroke-linecap:round;stroke-linejoin:round;" x1="775.335" y1="87.792" x2="775.625" y2="118.717"/>
<line style="fill:none;stroke:#F1F2F2;stroke-width:0.75;stroke-linecap:round;stroke-linejoin:round;" x1="665.011" y1="120.049" x2="664.213" y2="89.081"/>
<line style="fill:none;stroke:#F1F2F2;stroke-width:0.75;stroke-linecap:round;stroke-linejoin:round;" x1="485.919" y1="602.535" x2="481.271" y2="520.463"/>
<line style="fill:none;stroke:#F1F2F2;stroke-width:0.75;stroke-linecap:round;stroke-linejoin:round;" x1="414.92" y1="582.683" x2="485.919" y2="602.535"/>
<line style="fill:none;stroke:#F1F2F2;stroke-width:0.75;stroke-linecap:round;stroke-linejoin:round;" x1="589.454" y1="537.048" x2="485.919" y2="602.535"/>
<line style="fill:none;stroke:#F1F2F2;stroke-width:0.75;stroke-linecap:round;stroke-linejoin:round;" x1="657.133" y1="494.241" x2="636.905" y2="507.035"/>
<line style="fill:none;stroke:#F1F2F2;stroke-width:0.75;stroke-linecap:round;stroke-linejoin:round;" x1="481.271" y1="520.463" x2="414.92" y2="582.683"/>
<line style="fill:none;stroke:#F1F2F2;stroke-width:0.75;stroke-linecap:round;stroke-linejoin:round;" x1="564.438" y1="471.522" x2="481.271" y2="520.463"/>
<line style="fill:none;stroke:#F1F2F2;stroke-width:0.75;stroke-linecap:round;stroke-linejoin:round;" x1="579.483" y1="507.617" x2="838.079" y2="572.866"/>
<line style="fill:none;stroke:#F1F2F2;stroke-width:0.75;stroke-linecap:round;stroke-linejoin:round;" x1="580.604" y1="534.759" x2="838.09" y2="601.277"/>
<line style="fill:none;stroke:#F1F2F2;stroke-width:0.75;stroke-linecap:round;stroke-linejoin:round;" x1="596.746" y1="497.044" x2="579.483" y2="507.617"/>
<line style="fill:none;stroke:#F1F2F2;stroke-width:0.75;stroke-linecap:round;stroke-linejoin:round;" x1="580.604" y1="534.759" x2="579.483" y2="507.617"/>
<line style="fill:none;stroke:#F1F2F2;stroke-width:0.75;stroke-linecap:round;stroke-linejoin:round;" x1="1056.397" y1="547.02" x2="1016.622" y2="537.63"/>
<line style="fill:none;stroke:#F1F2F2;stroke-width:0.75;stroke-linecap:round;stroke-linejoin:round;" x1="853.748" y1="561.021" x2="596.746" y2="497.044"/>
<line style="fill:none;stroke:#F1F2F2;stroke-width:0.75;stroke-linecap:round;stroke-linejoin:round;" x1="1016.622" y1="537.63" x2="1015.969" y2="561.071"/>
<line style="fill:none;stroke:#F1F2F2;stroke-width:0.75;stroke-linecap:round;stroke-linejoin:round;" x1="1015.969" y1="561.071" x2="1055.593" y2="570.61"/>
<line style="fill:none;stroke:#F1F2F2;stroke-width:0.75;stroke-linecap:round;stroke-linejoin:round;" x1="838.09" y1="601.277" x2="838.079" y2="572.866"/>
<line style="fill:none;stroke:#F1F2F2;stroke-width:0.75;stroke-linecap:round;stroke-linejoin:round;" x1="838.079" y1="572.866" x2="853.748" y2="561.021"/>
<line style="fill:none;stroke:#F1F2F2;stroke-width:0.75;stroke-linecap:round;stroke-linejoin:round;" x1="853.689" y1="589.212" x2="853.748" y2="561.021"/>
<line style="fill:none;stroke:#F1F2F2;stroke-width:0.75;stroke-linecap:round;stroke-linejoin:round;" x1="838.09" y1="601.277" x2="853.689" y2="589.212"/>
<line style="fill:none;stroke:#F1F2F2;stroke-width:0.75;stroke-linecap:round;stroke-linejoin:round;" x1="1077.239" y1="337.797" x2="1063.136" y2="350.248"/>
<line style="fill:none;stroke:#F1F2F2;stroke-width:0.75;stroke-linecap:round;stroke-linejoin:round;" x1="808.609" y1="305.865" x2="902.772" y2="324.392"/>
<line style="fill:none;stroke:#F1F2F2;stroke-width:0.75;stroke-linecap:round;stroke-linejoin:round;" x1="1265.299" y1="203.396" x2="1077.239" y2="337.797"/>
<line style="fill:none;stroke:#F1F2F2;stroke-width:0.75;stroke-linecap:round;stroke-linejoin:round;" x1="1265.299" y1="203.396" x2="1250.833" y2="429.944"/>
<line style="fill:none;stroke:#F1F2F2;stroke-width:0.75;stroke-linecap:round;stroke-linejoin:round;" x1="808.837" y1="354.251" x2="902.305" y2="373.601"/>
<line style="fill:none;stroke:#F1F2F2;stroke-width:0.75;stroke-linecap:round;stroke-linejoin:round;" x1="1250.833" y1="429.944" x2="1067.895" y2="594.882"/>
<line style="fill:none;stroke:#F1F2F2;stroke-width:0.75;stroke-linecap:round;stroke-linejoin:round;" x1="1077.239" y1="337.797" x2="1067.895" y2="594.882"/>
<line style="fill:none;stroke:#F1F2F2;stroke-width:0.75;stroke-linecap:round;stroke-linejoin:round;" x1="1206.086" y1="324.05" x2="1140.457" y2="375.235"/>
<line style="fill:none;stroke:#F1F2F2;stroke-width:0.75;stroke-linecap:round;stroke-linejoin:round;" x1="1067.895" y1="594.882" x2="1055.305" y2="578.955"/>
<line style="fill:none;stroke:#F1F2F2;stroke-width:0.75;stroke-linecap:round;stroke-linejoin:round;" x1="1055.305" y1="578.955" x2="1063.136" y2="350.248"/>
<line style="fill:none;stroke:#F1F2F2;stroke-width:0.75;stroke-linecap:round;stroke-linejoin:round;" x1="902.832" y1="318.705" x2="808.578" y2="300.282"/>
<path style="fill:none;stroke:#F1F2F2;stroke-width:0.75;stroke-linecap:round;stroke-linejoin:round;" d="M1140.457,375.235
	c-3.938,3.069-4.061,6.885-4.645,11.119c-0.281,2.052-0.394,4.048-0.059,6.115c0.374,2.295,1.337,4.861,3.764,2.933"/>
<path style="fill:none;stroke:#F1F2F2;stroke-width:0.75;stroke-linecap:round;stroke-linejoin:round;" d="M1205.008,343.332
	c3.661-2.914,3.689-6.529,4.243-10.478c0.271-1.923,0.382-3.796,0.127-5.735c-0.276-2.088-0.957-4.894-3.292-3.069"/>
<line style="fill:none;stroke:#F1F2F2;stroke-width:0.75;stroke-linecap:round;stroke-linejoin:round;" x1="1123.747" y1="304.557" x2="913.887" y2="265.938"/>
<line style="fill:none;stroke:#F1F2F2;stroke-width:0.75;stroke-linecap:round;stroke-linejoin:round;" x1="902.218" y1="382.653" x2="903.271" y2="272.182"/>
<line style="fill:none;stroke:#F1F2F2;stroke-width:0.75;stroke-linecap:round;stroke-linejoin:round;" x1="913.887" y1="265.938" x2="903.271" y2="272.182"/>
<line style="fill:none;stroke:#F1F2F2;stroke-width:0.75;stroke-linecap:round;stroke-linejoin:round;" x1="903.271" y1="272.182" x2="1114.223" y2="311.366"/>
<line style="fill:none;stroke:#F1F2F2;stroke-width:0.75;stroke-linecap:round;stroke-linejoin:round;" x1="902.218" y1="382.653" x2="1060.887" y2="415.81"/>
<line style="fill:none;stroke:#F1F2F2;stroke-width:0.75;stroke-linecap:round;stroke-linejoin:round;" x1="1060.352" y1="431.493" x2="808.953" y2="378.152"/>
<line style="fill:none;stroke:#F1F2F2;stroke-width:0.75;stroke-linecap:round;stroke-linejoin:round;" x1="809.009" y1="388.854" x2="1059.97" y2="442.683"/>
<line style="fill:none;stroke:#F1F2F2;stroke-width:0.75;stroke-linecap:round;stroke-linejoin:round;" x1="809.6" y1="511.408" x2="1015.969" y2="561.071"/>
<path style="fill:none;stroke:#F1F2F2;stroke-width:0.75;stroke-linecap:round;stroke-linejoin:round;" d="M665.011,120.049
	c0.121,4.684,8.5,7.202,11.489,8.124c4.748,1.476,9.566,2.381,14.469,3.09c9.832,1.41,19.617,1.875,29.525,1.758
	c9.915-0.117,19.692-0.813,29.484-2.453c4.882-0.821,9.674-1.843,14.381-3.43c2.894-0.966,11.315-3.836,11.266-8.42"/>
<path style="fill:none;stroke:#F1F2F2;stroke-width:0.75;stroke-linecap:round;stroke-linejoin:round;" d="M668.13,84.076
	c-7.229,4.369-3.464,8.468,3.108,11.174c5.163,2.132,10.464,3.188,15.911,4.061c10.911,1.749,21.777,2.273,32.795,2.152
	c11.024-0.125,21.872-0.894,32.747-2.887c9.928-1.825,32.638-7.647,18.566-15.672"/>
<line style="fill:none;stroke:#F1F2F2;stroke-width:0.75;stroke-linecap:round;stroke-linejoin:round;" x1="838.109" y1="663.425" x2="844.905" y2="657.897"/>
<line style="fill:none;stroke:#F1F2F2;stroke-width:0.75;stroke-linecap:round;stroke-linejoin:round;" x1="844.905" y1="657.897" x2="590.514" y2="589.207"/>
<line style="fill:none;stroke:#F1F2F2;stroke-width:0.75;stroke-linecap:round;stroke-linejoin:round;" x1="583.039" y1="594.15" x2="590.514" y2="589.207"/>
<line style="fill:none;stroke:#F1F2F2;stroke-width:0.75;stroke-linecap:round;stroke-linejoin:round;" x1="838.109" y1="663.425" x2="583.039" y2="594.15"/>
<line style="fill:none;stroke:#F1F2F2;stroke-width:0.75;stroke-linecap:round;stroke-linejoin:round;" x1="844.905" y1="657.897" x2="844.816" y2="778.149"/>
<line style="fill:none;stroke:#F1F2F2;stroke-width:0.75;stroke-linecap:round;stroke-linejoin:round;" x1="844.816" y1="778.149" x2="595.1" y2="704.343"/>
<line style="fill:none;stroke:#F1F2F2;stroke-width:0.75;stroke-linecap:round;stroke-linejoin:round;" x1="590.794" y1="596.263" x2="595.1" y2="704.343"/>
<line style="fill:none;stroke:#F1F2F2;stroke-width:0.75;stroke-linecap:round;stroke-linejoin:round;" x1="844.816" y1="778.149" x2="928.262" y2="703.865"/>
<line style="fill:none;stroke:#F1F2F2;stroke-width:0.75;stroke-linecap:round;stroke-linejoin:round;" x1="928.262" y1="703.865" x2="926.912" y2="703.489"/>
<line style="fill:none;stroke:#F1F2F2;stroke-width:0.75;stroke-linecap:round;stroke-linejoin:round;" x1="1020.614" y1="285.578" x2="1023.924" y2="164.967"/>
<line style="fill:none;stroke:#F1F2F2;stroke-width:0.75;stroke-linecap:round;stroke-linejoin:round;" x1="928.262" y1="703.865" x2="929.91" y2="588.769"/>
<line style="fill:none;stroke:#F1F2F2;stroke-width:0.75;stroke-linecap:round;stroke-linejoin:round;" x1="929.91" y1="588.769" x2="929.055" y2="588.555"/>
<line style="fill:none;stroke:#F1F2F2;stroke-width:0.75;stroke-linecap:round;stroke-linejoin:round;" x1="929.91" y1="588.769" x2="935.934" y2="583.867"/>
<line style="fill:none;stroke:#F1F2F2;stroke-width:0.75;stroke-linecap:round;stroke-linejoin:round;" x1="992.993" y1="189.086" x2="990.903" y2="280.112"/>
<line style="fill:none;stroke:#F1F2F2;stroke-width:0.75;stroke-linecap:round;stroke-linejoin:round;" x1="935.934" y1="583.867" x2="853.744" y2="563.362"/>
<line style="fill:none;stroke:#F1F2F2;stroke-width:0.75;stroke-linecap:round;stroke-linejoin:round;" x1="625.112" y1="101.476" x2="653.906" y2="106.059"/>
<line style="fill:none;stroke:#F1F2F2;stroke-width:0.75;stroke-linecap:round;stroke-linejoin:round;" x1="373.454" y1="202.326" x2="625.112" y2="101.476"/>
<line style="fill:none;stroke:#F1F2F2;stroke-width:0.75;stroke-linecap:round;stroke-linejoin:round;" x1="808.548" y1="293.655" x2="992.993" y2="189.086"/>
<line style="fill:none;stroke:#F1F2F2;stroke-width:0.75;stroke-linecap:round;stroke-linejoin:round;" x1="845.765" y1="775.646" x2="927.439" y2="703.029"/>
<line style="fill:none;stroke:#F1F2F2;stroke-width:0.75;stroke-linecap:round;stroke-linejoin:round;" x1="1023.924" y1="164.967" x2="808.512" y2="286.067"/>
<path style="fill:none;stroke:#F1F2F2;stroke-width:0.75;stroke-linecap:round;stroke-linejoin:round;" d="M739.102,178.226
	c3.48,0.605,13.81,2.265,15.534,6.994c1.979,5.428-10.322,7.872-13.587,8.527c-11.816,2.363-23.086,2.37-34.928,0.335
	c-3.5-0.604-13.81-2.245-15.539-6.991c-1.992-5.481,10.292-7.872,13.582-8.527C715.985,176.203,727.259,176.192,739.102,178.226z"/>
<line style="fill:none;stroke:#F1F2F2;stroke-width:0.75;stroke-linecap:round;stroke-linejoin:round;" x1="927.439" y1="703.029" x2="929.069" y2="587.822"/>
<line style="fill:none;stroke:#F1F2F2;stroke-width:0.75;stroke-linecap:round;stroke-linejoin:round;" x1="845.873" y1="655.384" x2="929.069" y2="587.822"/>
<line style="fill:none;stroke:#F1F2F2;stroke-width:0.75;stroke-linecap:round;stroke-linejoin:round;" x1="845.765" y1="775.646" x2="845.873" y2="655.384"/>
<line style="fill:none;stroke:#F1F2F2;stroke-width:0.75;stroke-linecap:round;stroke-linejoin:round;" x1="653.906" y1="106.059" x2="1023.924" y2="164.967"/>
<line style="fill:none;stroke:#F1F2F2;stroke-width:0.75;stroke-linecap:round;stroke-linejoin:round;" x1="929.069" y1="587.822" x2="853.738" y2="568.937"/>
<line style="fill:none;stroke:#F1F2F2;stroke-width:0.75;stroke-linecap:round;stroke-linejoin:round;" x1="992.993" y1="189.086" x2="1023.924" y2="164.967"/>
<line style="fill:none;stroke:#F1F2F2;stroke-width:0.75;stroke-linecap:round;stroke-linejoin:round;" x1="617.321" y1="596.448" x2="617.228" y2="593.781"/>
<line style="fill:none;stroke:#F1F2F2;stroke-width:0.75;stroke-linecap:round;stroke-linejoin:round;" x1="373.454" y1="202.326" x2="404.504" y2="208.302"/>
<line style="fill:none;stroke:#F1F2F2;stroke-width:0.75;stroke-linecap:round;stroke-linejoin:round;" x1="389.328" y1="428.626" x2="419.428" y2="435.994"/>
<line style="fill:none;stroke:#F1F2F2;stroke-width:0.75;stroke-linecap:round;stroke-linejoin:round;" x1="670.384" y1="557.952" x2="617.228" y2="593.781"/>
<line style="fill:none;stroke:#F1F2F2;stroke-width:0.75;stroke-linecap:round;stroke-linejoin:round;" x1="389.328" y1="428.626" x2="373.454" y2="202.326"/>
<line style="fill:none;stroke:#F1F2F2;stroke-width:0.75;stroke-linecap:round;stroke-linejoin:round;" x1="844.816" y1="775.373" x2="845.765" y2="775.646"/>
<line style="fill:none;stroke:#F1F2F2;stroke-width:0.75;stroke-linecap:round;stroke-linejoin:round;" x1="617.228" y1="593.781" x2="845.873" y2="655.384"/>
<line style="fill:none;stroke:#F1F2F2;stroke-width:0.75;stroke-linecap:round;stroke-linejoin:round;" x1="797.871" y1="842.423" x2="880.349" y2="767.842"/>
<line style="fill:none;stroke:#F1F2F2;stroke-width:0.75;stroke-linecap:round;stroke-linejoin:round;" x1="809.7" y1="531.619" x2="419.428" y2="435.994"/>
<line style="fill:none;stroke:#F1F2F2;stroke-width:0.75;stroke-linecap:round;stroke-linejoin:round;" x1="809.7" y1="531.619" x2="808.512" y2="286.067"/>
<line style="fill:none;stroke:#F1F2F2;stroke-width:0.75;stroke-linecap:round;stroke-linejoin:round;" x1="797.617" y1="806.271" x2="833.354" y2="774.762"/>
<path style="fill:none;stroke:#F1F2F2;stroke-width:0.75;stroke-linecap:round;stroke-linejoin:round;" d="M880.349,767.842
	c2.146-1.931,3.53-3.742,3.559-6.843"/>
<line style="fill:none;stroke:#F1F2F2;stroke-width:0.75;stroke-linecap:round;stroke-linejoin:round;" x1="646.562" y1="719.553" x2="608.203" y2="748.58"/>
<line style="fill:none;stroke:#F1F2F2;stroke-width:0.75;stroke-linecap:round;stroke-linejoin:round;" x1="404.504" y1="208.302" x2="808.512" y2="286.067"/>
<path style="fill:none;stroke:#F1F2F2;stroke-width:0.75;stroke-linecap:round;stroke-linejoin:round;" d="M604.375,792.547
	c0.244,6.326,7.655,9.877,12.386,11.366"/>
<path style="fill:none;stroke:#F1F2F2;stroke-width:0.75;stroke-linecap:round;stroke-linejoin:round;" d="M608.203,748.58
	c-10.783,8.151-3.798,16.516,7.248,19.918"/>
<line style="fill:none;stroke:#F1F2F2;stroke-width:0.75;stroke-linecap:round;stroke-linejoin:round;" x1="616.761" y1="803.913" x2="756.964" y2="848.281"/>
<line style="fill:none;stroke:#F1F2F2;stroke-width:0.75;stroke-linecap:round;stroke-linejoin:round;" x1="615.451" y1="768.498" x2="756.462" y2="812.008"/>
<path style="fill:none;stroke:#F1F2F2;stroke-width:0.75;stroke-linecap:round;stroke-linejoin:round;" d="M756.964,848.281
	c11.523,3.642,30.999,3.094,40.907-5.858"/>
<path style="fill:none;stroke:#F1F2F2;stroke-width:0.75;stroke-linecap:round;stroke-linejoin:round;" d="M756.462,812.008
	c11.524,3.564,31.152,3.08,41.155-5.737"/>
<line style="fill:none;stroke:#FFFFFF;stroke-width:0.35;stroke-dasharray:2;" x1="616.583" y1="206.169" x2="683.727" y2="137.998"/>
<line style="fill:none;stroke:#FFFFFF;stroke-width:0.35;stroke-dasharray:2;" x1="396.237" y1="306.939" x2="616.583" y2="206.169"/>
<line style="fill:none;stroke:#FFFFFF;stroke-width:0.35;stroke-dasharray:2;" x1="465" y1="233.272" x2="396.237" y2="306.939"/>
<line style="fill:none;stroke:#FFFFFF;stroke-width:0.35;stroke-dasharray:2;" x1="683.727" y1="137.998" x2="465" y2="233.272"/>
<line style="fill:none;stroke:#FFFFFF;stroke-width:0.35;stroke-dasharray:2;" x1="683.727" y1="137.998" x2="613.899" y2="126.463"/>
<line style="fill:none;stroke:#FFFFFF;stroke-width:0.35;stroke-dasharray:2;" x1="613.899" y1="126.463" x2="390.246" y2="218.648"/>
<line style="fill:none;stroke:#FFFFFF;stroke-width:0.35;stroke-dasharray:2;" x1="465" y1="233.272" x2="390.246" y2="218.648"/>
<line style="fill:none;stroke:#FFFFFF;stroke-width:0.35;stroke-dasharray:2;" x1="613.899" y1="126.463" x2="616.583" y2="206.169"/>
<line style="fill:none;stroke:#FFFFFF;stroke-width:0.35;stroke-dasharray:2;" x1="390.246" y1="218.648" x2="396.237" y2="306.939"/>
<line style="fill:none;stroke:#FFFFFF;stroke-width:0.35;stroke-dasharray:2;" x1="799.627" y1="298.709" x2="465" y2="233.272"/>
<path style="fill:none;stroke:#FFFFFF;stroke-width:0.35;stroke-dasharray:2;" d="M609.539,783.596
	c-3.113,2.415-5.335,4.532-5.164,8.951"/>
<line style="fill:none;stroke:#FFFFFF;stroke-width:0.35;stroke-dasharray:2;" x1="808.512" y1="286.067" x2="799.627" y2="298.709"/>
<line style="fill:none;stroke:#FFFFFF;stroke-width:0.35;stroke-dasharray:2;" x1="697.346" y1="681.124" x2="646.562" y2="719.553"/>
<line style="fill:none;stroke:#FFFFFF;stroke-width:0.35;stroke-dasharray:2;" x1="698.129" y1="714.787" x2="609.539" y2="783.596"/>
<path style="fill:none;stroke:#FFFFFF;stroke-width:0.35;stroke-dasharray:2;" d="M734.952,676.387
	c-10.549-2.959-28.126-2.435-37.606,4.737"/>
<path style="fill:none;stroke:#FFFFFF;stroke-width:0.35;stroke-dasharray:2;" d="M735.526,709.956
	c-10.537-3.032-27.999-2.469-37.397,4.831"/>
<line style="fill:none;stroke:#FFFFFF;stroke-width:0.35;stroke-dasharray:2;" x1="869.786" y1="714.211" x2="734.952" y2="676.387"/>
<line style="fill:none;stroke:#FFFFFF;stroke-width:0.35;stroke-dasharray:2;" x1="869.621" y1="748.543" x2="735.526" y2="709.956"/>
<path style="fill:none;stroke:#FFFFFF;stroke-width:0.35;stroke-dasharray:2;" d="M880.58,733.131
	c9.95-8.767-1.056-16.191-10.794-18.92"/>
<path style="fill:none;stroke:#FFFFFF;stroke-width:0.35;stroke-dasharray:2;" d="M883.907,760.999
	c0.047-7.124-9.159-10.98-14.286-12.456"/>
<line style="fill:none;stroke:#FFFFFF;stroke-width:0.35;stroke-dasharray:2;" x1="799.627" y1="298.709" x2="800.982" y2="517.306"/>
<line style="fill:none;stroke:#FFFFFF;stroke-width:0.35;stroke-dasharray:2;" x1="833.354" y1="774.762" x2="880.58" y2="733.131"/>
<line style="fill:none;stroke:#FFFFFF;stroke-width:0.35;stroke-dasharray:2;" x1="800.982" y1="517.306" x2="809.7" y2="531.619"/>
<line style="fill:none;stroke:#FFFFFF;stroke-width:0.35;stroke-dasharray:2;" x1="433.948" y1="428.341" x2="800.982" y2="517.306"/>
<line style="fill:none;stroke:#FFFFFF;stroke-width:0.35;stroke-dasharray:2;" x1="396.237" y1="306.939" x2="403.973" y2="421.068"/>
<line style="fill:none;stroke:#FFFFFF;stroke-width:0.35;stroke-dasharray:2;" x1="403.973" y1="421.068" x2="389.328" y2="428.626"/>
<line style="fill:none;stroke:#FFFFFF;stroke-width:0.35;stroke-dasharray:2;" x1="621.341" y1="709.448" x2="844.816" y2="775.373"/>
<line style="fill:none;stroke:#FFFFFF;stroke-width:0.35;stroke-dasharray:2;" x1="403.973" y1="421.068" x2="433.948" y2="428.341"/>
<line style="fill:none;stroke:#FFFFFF;stroke-width:0.35;stroke-dasharray:2;" x1="708.205" y1="532.46" x2="670.384" y2="557.952"/>
<line style="fill:none;stroke:#FFFFFF;stroke-width:0.35;stroke-dasharray:2;" x1="373.454" y1="202.326" x2="390.246" y2="218.648"/>
<line style="fill:none;stroke:#FFFFFF;stroke-width:0.35;stroke-dasharray:2;" x1="621.341" y1="709.448" x2="617.321" y2="596.448"/>
<line style="fill:none;stroke:#FFFFFF;stroke-width:0.35;stroke-dasharray:2;" x1="710.518" y1="643.429" x2="621.341" y2="709.448"/>
<line style="fill:none;stroke:#FFFFFF;stroke-width:0.35;stroke-dasharray:2;" x1="853.738" y1="568.937" x2="708.205" y2="532.46"/>
<line style="fill:none;stroke:#FFFFFF;stroke-width:0.35;stroke-dasharray:2;" x1="992.993" y1="189.086" x2="683.727" y2="137.998"/>
<line style="fill:none;stroke:#FFFFFF;stroke-width:0.35;stroke-dasharray:2;" x1="710.518" y1="643.429" x2="708.205" y2="532.46"/>
<line style="fill:none;stroke:#FFFFFF;stroke-width:0.35;stroke-dasharray:2;" x1="927.439" y1="703.029" x2="710.518" y2="643.429"/>
<path style="fill:none;stroke:#FFFFFF;stroke-width:0.35;stroke-dasharray:2;" d="M739.431,200.234
	c3.653,0.648,15.481,2.047,15.665,8.068"/>
<path style="fill:none;stroke:#FFFFFF;stroke-width:0.35;stroke-dasharray:2;" d="M755.099,208.349
	c0.035,2.934-4.203,4.815-6.157,5.604c-2.742,1.108-5.551,1.799-8.438,2.351c-5.796,1.106-11.569,1.517-17.457,1.517
	c-5.883,0-11.661-0.418-17.459-1.53c-3.473-0.665-14.555-2.207-14.679-7.904"/>
<path style="fill:none;stroke:#FFFFFF;stroke-width:0.35;stroke-dasharray:2;" d="M690.908,208.312
	c0.018-4.163,7.474-6.146,10.104-6.873c4.189-1.159,8.4-1.775,12.708-2.158c8.673-0.765,17.102-0.565,25.71,0.952"/>
<line style="fill:none;stroke:#FFFFFF;stroke-width:0.35;stroke-dasharray:2;" x1="799.627" y1="298.709" x2="808.548" y2="293.655"/>
<line style="fill:none;stroke:#FFFFFF;stroke-width:0.35;stroke-dasharray:2;" x1="684.289" y1="527.163" x2="690.959" y2="522.76"/>
<line style="fill:none;stroke:#FFFFFF;stroke-width:0.35;stroke-dasharray:2;" x1="853.744" y1="563.362" x2="690.959" y2="522.76"/>
<line style="fill:none;stroke:#FFFFFF;stroke-width:0.35;stroke-dasharray:2;" x1="625.112" y1="101.476" x2="613.899" y2="126.463"/>
<line style="fill:none;stroke:#FFFFFF;stroke-width:0.35;stroke-dasharray:2;" x1="990.903" y1="280.112" x2="988.5" y2="385.391"/>
<line style="fill:none;stroke:#FFFFFF;stroke-width:0.35;stroke-dasharray:2;" x1="687.008" y1="637.544" x2="684.289" y2="527.163"/>
<line style="fill:none;stroke:#FFFFFF;stroke-width:0.35;stroke-dasharray:2;" x1="929.055" y1="588.555" x2="684.289" y2="527.163"/>
<line style="fill:none;stroke:#FFFFFF;stroke-width:0.35;stroke-dasharray:2;" x1="988.5" y1="385.391" x2="1017.952" y2="382.442"/>
<line style="fill:none;stroke:#FFFFFF;stroke-width:0.35;stroke-dasharray:2;" x1="1017.952" y1="382.442" x2="1020.614" y2="285.578"/>
<line style="fill:none;stroke:#FFFFFF;stroke-width:0.35;stroke-dasharray:2;" x1="595.1" y1="704.343" x2="687.008" y2="637.544"/>
<line style="fill:none;stroke:#FFFFFF;stroke-width:0.35;stroke-dasharray:2;" x1="926.912" y1="703.489" x2="687.008" y2="637.544"/>
<line style="fill:none;stroke:#FFFFFF;stroke-width:0.35;stroke-dasharray:2;" x1="1017.952" y1="382.442" x2="659.521" y2="309.333"/>
<line style="fill:none;stroke:#FFFFFF;stroke-width:0.35;stroke-dasharray:2;" x1="648.139" y1="315.332" x2="988.5" y2="385.391"/>
<line style="fill:none;stroke:#FFFFFF;stroke-width:0.35;stroke-dasharray:2;" x1="616.583" y1="206.169" x2="620.062" y2="309.557"/>
<line style="fill:none;stroke:#FFFFFF;stroke-width:0.35;stroke-dasharray:2;" x1="590.514" y1="589.207" x2="590.794" y2="596.263"/>
<line style="fill:none;stroke:#FFFFFF;stroke-width:0.35;stroke-dasharray:2;" x1="620.062" y1="309.557" x2="631.551" y2="303.625"/>
<line style="fill:none;stroke:#FFFFFF;stroke-width:0.35;stroke-dasharray:2;" x1="631.551" y1="303.625" x2="625.112" y2="101.476"/>
<line style="fill:none;stroke:#FFFFFF;stroke-width:0.35;stroke-dasharray:2;" x1="620.062" y1="309.557" x2="648.139" y2="315.332"/>
<line style="fill:none;stroke:#FFFFFF;stroke-width:0.35;stroke-dasharray:2;" x1="631.551" y1="303.625" x2="659.521" y2="309.333"/>
<line style="fill:none;stroke:#FFFFFF;stroke-width:0.35;stroke-dasharray:2;" x1="734.771" y1="493.396" x2="413.613" y2="416.099"/>
<line style="fill:none;stroke:#FFFFFF;stroke-width:0.35;stroke-dasharray:2;" x1="413.613" y1="416.099" x2="410.23" y2="365.09"/>
<path style="fill:none;stroke:#FFFFFF;stroke-width:0.35;stroke-dasharray:2;" d="M771.141,82.838
	c-7.007-3.93-14.33-4.845-21.957-5.89"/>
<line style="fill:none;stroke:#FFFFFF;stroke-width:0.35;stroke-dasharray:2;" x1="773.682" y1="448.297" x2="410.23" y2="365.09"/>
<path style="fill:none;stroke:#FFFFFF;stroke-width:0.35;stroke-dasharray:2;" d="M749.184,76.948
	c-17.769-2.423-63.532-3.377-80.997,7.094"/>
<path style="fill:none;stroke:#FFFFFF;stroke-width:0.35;stroke-dasharray:2;" d="M775.625,118.666
	c-0.107-4.665-8.554-7.221-11.529-8.14c-4.76-1.475-9.593-2.382-14.508-3.085"/>
<line style="fill:none;stroke:#FFFFFF;stroke-width:0.35;stroke-dasharray:2;" x1="774.25" y1="502.891" x2="773.682" y2="448.297"/>
<path style="fill:none;stroke:#FFFFFF;stroke-width:0.35;stroke-dasharray:2;" d="M749.588,107.441
	c-14.816-2.123-29.402-2.275-44.277-1.076c-7.399,0.599-14.694,1.534-21.936,3.223c-3.619,0.843-7.151,1.835-10.584,3.296
	c-2.406,1.023-7.839,3.455-7.781,7.127"/>
<line style="fill:none;stroke:#FFFFFF;stroke-width:0.35;stroke-dasharray:2;" x1="1063.633" y1="548.723" x2="1067.328" y2="444.258"/>
<line style="fill:none;stroke:#FFFFFF;stroke-width:0.35;stroke-dasharray:2;" x1="1067.328" y1="444.258" x2="1078.607" y2="435.365"/>
<line style="fill:none;stroke:#FFFFFF;stroke-width:0.35;stroke-dasharray:2;" x1="1074.756" y1="539.105" x2="1078.607" y2="435.365"/>
<line style="fill:none;stroke:#FFFFFF;stroke-width:0.35;stroke-dasharray:2;" x1="413.613" y1="416.099" x2="403.973" y2="421.068"/>
<line style="fill:none;stroke:#FFFFFF;stroke-width:0.35;stroke-dasharray:2;" x1="734.771" y1="493.396" x2="809.6" y2="511.408"/>
<line style="fill:none;stroke:#FFFFFF;stroke-width:0.35;stroke-dasharray:2;" x1="1059.97" y1="442.683" x2="1067.328" y2="444.258"/>
<line style="fill:none;stroke:#FFFFFF;stroke-width:0.35;stroke-dasharray:2;" x1="410.23" y1="365.09" x2="400.499" y2="369.855"/>
<line style="fill:none;stroke:#FFFFFF;stroke-width:0.35;stroke-dasharray:2;" x1="732.766" y1="372.5" x2="809.009" y2="388.854"/>
<line style="fill:none;stroke:#FFFFFF;stroke-width:0.35;stroke-dasharray:2;" x1="745.91" y1="364.768" x2="732.766" y2="372.5"/>
<line style="fill:none;stroke:#FFFFFF;stroke-width:0.35;stroke-dasharray:2;" x1="734.771" y1="493.396" x2="732.766" y2="372.5"/>
<line style="fill:none;stroke:#FFFFFF;stroke-width:0.35;stroke-dasharray:2;" x1="747.655" y1="484.868" x2="734.771" y2="493.396"/>
<line style="fill:none;stroke:#FFFFFF;stroke-width:0.35;stroke-dasharray:2;" x1="808.953" y1="378.152" x2="745.91" y2="364.768"/>
<line style="fill:none;stroke:#FFFFFF;stroke-width:0.35;stroke-dasharray:2;" x1="765.681" y1="508.747" x2="765.035" y2="453.901"/>
<line style="fill:none;stroke:#FFFFFF;stroke-width:0.35;stroke-dasharray:2;" x1="1078.607" y1="435.365" x2="1060.352" y2="431.493"/>
<line style="fill:none;stroke:#FFFFFF;stroke-width:0.35;stroke-dasharray:2;" x1="747.655" y1="484.868" x2="745.91" y2="364.768"/>
<line style="fill:none;stroke:#FFFFFF;stroke-width:0.35;stroke-dasharray:2;" x1="1027.334" y1="551.482" x2="747.655" y2="484.868"/>
<line style="fill:none;stroke:#FFFFFF;stroke-width:0.35;stroke-dasharray:2;" x1="1028.028" y1="528.193" x2="1027.334" y2="551.482"/>
<line style="fill:none;stroke:#FFFFFF;stroke-width:0.35;stroke-dasharray:2;" x1="1074.756" y1="539.105" x2="1028.028" y2="528.193"/>
<line style="fill:none;stroke:#FFFFFF;stroke-width:0.35;stroke-dasharray:2;" x1="1207.22" y1="424.61" x2="1212.636" y2="329.645"/>
<line style="fill:none;stroke:#FFFFFF;stroke-width:0.35;stroke-dasharray:2;" x1="1212.636" y1="329.645" x2="1221.605" y2="322.564"/>
<line style="fill:none;stroke:#FFFFFF;stroke-width:0.35;stroke-dasharray:2;" x1="1216.097" y1="416.927" x2="1221.605" y2="322.564"/>
<line style="fill:none;stroke:#FFFFFF;stroke-width:0.35;stroke-dasharray:2;" x1="1162.891" y1="437.126" x2="1163.963" y2="415.755"/>
<line style="fill:none;stroke:#FFFFFF;stroke-width:0.35;stroke-dasharray:2;" x1="1060.887" y1="415.81" x2="1162.891" y2="437.126"/>
<line style="fill:none;stroke:#FFFFFF;stroke-width:0.35;stroke-dasharray:2;" x1="400.499" y1="369.855" x2="765.035" y2="453.901"/>
<line style="fill:none;stroke:#FFFFFF;stroke-width:0.35;stroke-dasharray:2;" x1="1114.223" y1="311.366" x2="1212.636" y2="329.645"/>
<line style="fill:none;stroke:#FFFFFF;stroke-width:0.35;stroke-dasharray:2;" x1="765.681" y1="508.747" x2="774.25" y2="502.891"/>
<line style="fill:none;stroke:#FFFFFF;stroke-width:0.35;stroke-dasharray:2;" x1="1163.963" y1="415.755" x2="1207.22" y2="424.61"/>
<line style="fill:none;stroke:#FFFFFF;stroke-width:0.35;stroke-dasharray:2;" x1="765.035" y1="453.901" x2="773.682" y2="448.297"/>
<line style="fill:none;stroke:#FFFFFF;stroke-width:0.35;stroke-dasharray:2;" x1="949.273" y1="383.328" x2="956.033" y2="378.708"/>
<line style="fill:none;stroke:#FFFFFF;stroke-width:0.35;stroke-dasharray:2;" x1="912.658" y1="375.742" x2="902.218" y2="382.653"/>
<line style="fill:none;stroke:#FFFFFF;stroke-width:0.35;stroke-dasharray:2;" x1="956.033" y1="378.708" x2="956.912" y2="329.28"/>
<line style="fill:none;stroke:#FFFFFF;stroke-width:0.35;stroke-dasharray:2;" x1="1221.605" y1="322.564" x2="1123.747" y2="304.557"/>
<line style="fill:none;stroke:#FFFFFF;stroke-width:0.35;stroke-dasharray:2;" x1="912.658" y1="375.742" x2="913.887" y2="265.938"/>
<line style="fill:none;stroke:#FFFFFF;stroke-width:0.35;stroke-dasharray:2;" x1="1171.989" y1="429.448" x2="912.658" y2="375.742"/>
<line style="fill:none;stroke:#FFFFFF;stroke-width:0.35;stroke-dasharray:2;" x1="950.104" y1="333.705" x2="956.912" y2="329.28"/>
<path style="fill:none;stroke:#FFFFFF;stroke-width:0.35;stroke-dasharray:2;" d="M1184.673,319.381
	c-0.593-0.11-0.979,0.113-1.42,0.447"/>
<path style="fill:none;stroke:#FFFFFF;stroke-width:0.35;stroke-dasharray:2;" d="M1182.25,339.037
	c3.419-2.665,3.557-6.021,4.159-9.687c0.297-1.775,0.437-3.527,0.324-5.333c-0.052-0.899-0.167-1.774-0.437-2.637
	c-0.292-0.923-0.42-1.756-1.602-1.999"/>
<line style="fill:none;stroke:#FFFFFF;stroke-width:0.35;stroke-dasharray:2;" x1="949.273" y1="383.328" x2="950.104" y2="333.705"/>
<path style="fill:none;stroke:#FFFFFF;stroke-width:0.35;stroke-dasharray:2;" d="M1114.133,391.184
	c0.723,0.134,1.178-0.146,1.703-0.55"/>
<path style="fill:none;stroke:#FFFFFF;stroke-width:0.35;stroke-dasharray:2;" d="M1116.694,370.542
	c-3.628,2.769-3.873,6.281-4.54,10.168c-0.313,1.875-0.459,3.726-0.323,5.638c0.069,0.946,0.208,1.866,0.513,2.773
	c0.337,0.97,0.549,1.813,1.767,2.058"/>
<line style="fill:none;stroke:#FFFFFF;stroke-width:0.35;stroke-dasharray:2;" x1="1183.253" y1="319.828" x2="1116.694" y2="370.542"/>
<line style="fill:none;stroke:#FFFFFF;stroke-width:0.35;stroke-dasharray:2;" x1="956.912" y1="329.28" x2="902.832" y2="318.705"/>
<line style="fill:none;stroke:#FFFFFF;stroke-width:0.35;stroke-dasharray:2;" x1="1063.136" y1="350.248" x2="1232.786" y2="228.703"/>
<line style="fill:none;stroke:#FFFFFF;stroke-width:0.35;stroke-dasharray:2;" x1="808.578" y1="300.282" x2="618.499" y2="263.113"/>
<line style="fill:none;stroke:#FFFFFF;stroke-width:0.35;stroke-dasharray:2;" x1="1220.686" y1="433.179" x2="1232.786" y2="228.703"/>
<line style="fill:none;stroke:#FFFFFF;stroke-width:0.35;stroke-dasharray:2;" x1="1250.833" y1="429.944" x2="1220.686" y2="433.179"/>
<line style="fill:none;stroke:#FFFFFF;stroke-width:0.35;stroke-dasharray:2;" x1="1062.798" y1="572.348" x2="1055.305" y2="578.955"/>
<line style="fill:none;stroke:#FFFFFF;stroke-width:0.35;stroke-dasharray:2;" x1="1220.686" y1="433.179" x2="1214.853" y2="438.323"/>
<line style="fill:none;stroke:#FFFFFF;stroke-width:0.35;stroke-dasharray:2;" x1="620.062" y1="309.557" x2="612.309" y2="313.559"/>
<line style="fill:none;stroke:#FFFFFF;stroke-width:0.35;stroke-dasharray:2;" x1="612.309" y1="313.559" x2="610.692" y2="266.933"/>
<line style="fill:none;stroke:#FFFFFF;stroke-width:0.35;stroke-dasharray:2;" x1="754.809" y1="186.219" x2="755.099" y2="208.349"/>
<line style="fill:none;stroke:#FFFFFF;stroke-width:0.35;stroke-dasharray:2;" x1="618.499" y1="263.113" x2="610.692" y2="266.933"/>
<line style="fill:none;stroke:#FFFFFF;stroke-width:0.35;stroke-dasharray:2;" x1="612.309" y1="313.559" x2="808.837" y2="354.251"/>
<line style="fill:none;stroke:#FFFFFF;stroke-width:0.35;stroke-dasharray:2;" x1="902.305" y1="373.601" x2="912.658" y2="375.742"/>
<line style="fill:none;stroke:#FFFFFF;stroke-width:0.35;stroke-dasharray:2;" x1="610.692" y1="266.933" x2="808.609" y2="305.865"/>
<line style="fill:none;stroke:#FFFFFF;stroke-width:0.35;stroke-dasharray:2;" x1="902.772" y1="324.392" x2="950.104" y2="333.705"/>
<line style="fill:none;stroke:#FFFFFF;stroke-width:0.35;stroke-dasharray:2;" x1="1232.786" y1="228.703" x2="1265.299" y2="203.396"/>
<line style="fill:none;stroke:#FFFFFF;stroke-width:0.35;stroke-dasharray:2;" x1="1055.593" y1="570.61" x2="1062.798" y2="572.348"/>
<line style="fill:none;stroke:#FFFFFF;stroke-width:0.35;stroke-dasharray:2;" x1="853.689" y1="589.212" x2="597.778" y2="523.969"/>
<line style="fill:none;stroke:#FFFFFF;stroke-width:0.35;stroke-dasharray:2;" x1="1171.989" y1="429.448" x2="1214.853" y2="438.323"/>
<line style="fill:none;stroke:#FFFFFF;stroke-width:0.35;stroke-dasharray:2;" x1="597.778" y1="523.969" x2="596.746" y2="497.044"/>
<line style="fill:none;stroke:#FFFFFF;stroke-width:0.35;stroke-dasharray:2;" x1="1171.989" y1="429.448" x2="1015.969" y2="561.071"/>
<line style="fill:none;stroke:#FFFFFF;stroke-width:0.35;stroke-dasharray:2;" x1="1173.081" y1="408.204" x2="1171.989" y2="429.448"/>
<line style="fill:none;stroke:#FFFFFF;stroke-width:0.35;stroke-dasharray:2;" x1="597.778" y1="523.969" x2="580.604" y2="534.759"/>
<line style="fill:none;stroke:#FFFFFF;stroke-width:0.35;stroke-dasharray:2;" x1="1063.633" y1="548.723" x2="1056.397" y2="547.02"/>
<line style="fill:none;stroke:#FFFFFF;stroke-width:0.35;stroke-dasharray:2;" x1="1173.081" y1="408.204" x2="1016.622" y2="537.63"/>
<line style="fill:none;stroke:#FFFFFF;stroke-width:0.35;stroke-dasharray:2;" x1="1216.097" y1="416.927" x2="1173.081" y2="408.204"/>
<line style="fill:none;stroke:#FFFFFF;stroke-width:0.35;stroke-dasharray:2;" x1="1214.853" y1="438.323" x2="1062.798" y2="572.348"/>
<line style="fill:none;stroke:#FFFFFF;stroke-width:0.35;stroke-dasharray:2;" x1="1062.798" y1="572.348" x2="1063.633" y2="548.723"/>
<line style="fill:none;stroke:#FFFFFF;stroke-width:0.35;stroke-dasharray:2;" x1="1216.097" y1="416.927" x2="1063.633" y2="548.723"/>
<line style="fill:none;stroke:#FFFFFF;stroke-width:0.35;stroke-dasharray:2;" x1="1214.853" y1="438.323" x2="1216.097" y2="416.927"/>
<line style="fill:none;stroke:#FFFFFF;stroke-width:0.35;stroke-dasharray:2;" x1="922.863" y1="535.693" x2="936.834" y2="524.891"/>
<line style="fill:none;stroke:#FFFFFF;stroke-width:0.35;stroke-dasharray:2;" x1="936.834" y1="524.891" x2="937.244" y2="497.942"/>
<line style="fill:none;stroke:#FFFFFF;stroke-width:0.35;stroke-dasharray:2;" x1="923.219" y1="508.532" x2="937.244" y2="497.942"/>
<line style="fill:none;stroke:#FFFFFF;stroke-width:0.35;stroke-dasharray:2;" x1="922.863" y1="535.693" x2="923.219" y2="508.532"/>
<line style="fill:none;stroke:#FFFFFF;stroke-width:0.35;stroke-dasharray:2;" x1="936.834" y1="524.891" x2="689.625" y2="466.269"/>
<line style="fill:none;stroke:#FFFFFF;stroke-width:0.35;stroke-dasharray:2;" x1="689.625" y1="466.269" x2="689.021" y2="440.479"/>
<line style="fill:none;stroke:#FFFFFF;stroke-width:0.35;stroke-dasharray:2;" x1="937.244" y1="497.942" x2="689.021" y2="440.479"/>
<line style="fill:none;stroke:#FFFFFF;stroke-width:0.35;stroke-dasharray:2;" x1="689.625" y1="466.269" x2="674.161" y2="475.99"/>
<line style="fill:none;stroke:#FFFFFF;stroke-width:0.35;stroke-dasharray:2;" x1="674.161" y1="475.99" x2="673.483" y2="450.004"/>
<line style="fill:none;stroke:#FFFFFF;stroke-width:0.35;stroke-dasharray:2;" x1="689.021" y1="440.479" x2="673.483" y2="450.004"/>
<line style="fill:none;stroke:#FFFFFF;stroke-width:0.35;stroke-dasharray:2;" x1="674.161" y1="475.99" x2="922.863" y2="535.693"/>
<line style="fill:none;stroke:#FFFFFF;stroke-width:0.35;stroke-dasharray:2;" x1="673.483" y1="450.004" x2="923.219" y2="508.532"/>
<line style="fill:none;stroke:#FFFFFF;stroke-width:0.35;stroke-dasharray:2;" x1="689.773" y1="397.785" x2="564.438" y2="471.522"/>
<line style="fill:none;stroke:#FFFFFF;stroke-width:0.35;stroke-dasharray:2;" x1="414.92" y1="582.683" x2="625.004" y2="456.635"/>
<line style="fill:none;stroke:#FFFFFF;stroke-width:0.35;stroke-dasharray:2;" x1="625.004" y1="456.635" x2="689.773" y2="397.785"/>
<line style="fill:none;stroke:#FFFFFF;stroke-width:0.35;stroke-dasharray:2;" x1="625.004" y1="456.635" x2="691.521" y2="472.491"/>
<line style="fill:none;stroke:#FFFFFF;stroke-width:0.35;stroke-dasharray:2;" x1="691.521" y1="472.491" x2="657.133" y2="494.241"/>
<line style="fill:none;stroke:#FFFFFF;stroke-width:0.35;stroke-dasharray:2;" x1="636.905" y1="507.035" x2="589.454" y2="537.048"/>
<line style="fill:none;stroke:#FFFFFF;stroke-width:0.35;stroke-dasharray:2;" x1="691.521" y1="472.491" x2="689.773" y2="397.785"/>
<line style="fill:none;stroke:#FFFFFF;stroke-width:0.35;stroke-dasharray:2;" x1="1137.789" y1="395.955" x2="1114.11" y2="391.18"/>
<line style="fill:none;stroke:#FFFFFF;stroke-width:0.35;stroke-dasharray:2;" x1="1184.673" y1="319.381" x2="1207.456" y2="323.592"/>
<line style="fill:none;stroke:#FFFFFF;stroke-width:0.35;stroke-dasharray:2;" x1="884.152" y1="726.437" x2="884.029" y2="743.237"/>
<line style="fill:none;stroke:#FFFFFF;stroke-width:0.35;stroke-dasharray:2;" x1="690.909" y1="208.387" x2="690.411" y2="186.23"/>
<line style="fill:none;stroke:#FFFFFF;stroke-width:0.35;stroke-dasharray:2;" x1="1115.836" y1="390.634" x2="1182.25" y2="339.037"/>
</svg>
